<?xml version="1.0" standalone="no"?>
<!DOCTYPE svg PUBLIC "-//W3C//DTD SVG 20010904//EN"
 "http://www.w3.org/TR/2001/REC-SVG-20010904/DTD/svg10.dtd">
<svg version="1.0" xmlns="http://www.w3.org/2000/svg"
 width="1024.000000pt" height="1024.000000pt" viewBox="0 0 1024.000000 1024.000000"
 preserveAspectRatio="xMidYMid meet">

<g transform="translate(0.000000,1024.000000) scale(0.100000,-0.100000)"
fill="#000000" stroke="none">
<path d="M5080 8753 c-57 -21 -315 -174 -570 -338 -36 -23 -191 -121 -345
-217 -154 -97 -329 -207 -390 -245 -273 -172 -1191 -712 -1213 -713 -4 -1 -38
-22 -77 -48 -84 -57 -127 -117 -143 -197 -16 -76 -17 -2718 -2 -2815 6 -36 26
-97 45 -136 49 -101 135 -178 410 -367 127 -87 331 -229 455 -314 124 -86 322
-221 440 -302 118 -81 247 -169 285 -196 381 -264 999 -673 1040 -687 68 -24
129 -22 195 5 80 33 363 223 1385 931 270 186 540 373 600 414 270 185 495
350 551 404 67 64 103 122 131 213 17 57 18 132 18 1465 l0 1405 -28 57 c-46
93 -13 71 -657 438 -366 208 -504 293 -1070 651 -151 96 -304 193 -340 216
-36 22 -124 78 -195 125 -360 234 -405 258 -470 257 -22 0 -47 -3 -55 -6z
m135 -71 c25 -13 278 -171 545 -342 39 -25 180 -115 313 -200 417 -266 971
-595 1422 -845 77 -43 162 -90 189 -105 74 -42 114 -76 139 -123 l22 -42 3
-1355 c2 -867 -1 -1385 -7 -1439 -18 -146 -69 -230 -205 -335 -162 -126 -1944
-1359 -2281 -1578 -182 -118 -221 -132 -309 -106 -56 17 -665 423 -1541 1028
-82 57 -199 137 -260 179 -60 41 -163 111 -227 156 -65 44 -186 127 -270 184
-84 58 -175 123 -202 145 -67 57 -123 138 -146 214 -20 63 -20 96 -20 1456 0
800 4 1408 10 1430 5 22 22 58 37 80 31 44 54 59 370 236 328 185 993 577 993
587 0 3 -7 3 -15 -1 -8 -3 -15 0 -15 5 0 7 9 9 22 6 16 -5 56 15 145 70 68 41
122 78 119 80 -2 3 -13 0 -23 -6 -16 -8 -20 -7 -20 5 0 12 8 15 31 11 35 -5
107 30 86 43 -8 5 -7 9 5 13 9 4 13 3 10 -3 -14 -23 -37 -36 638 388 117 73
230 142 252 154 75 40 126 43 190 10z m-190 8 c-3 -5 -13 -10 -21 -10 -8 0
-14 5 -14 10 0 6 9 10 21 10 11 0 17 -4 14 -10z m266 -27 c13 -17 13 -17 -6
-3 -11 8 -22 16 -24 17 -2 2 0 3 6 3 6 0 17 -8 24 -17z m-376 -42 c-34 -21
-44 -19 -25 4 7 8 22 15 34 15 18 0 17 -2 -9 -19z m507 -25 c7 4 10 4 6 -1 -9
-9 12 -30 39 -39 11 -4 29 -16 39 -28 18 -20 16 -20 -21 3 -103 63 -134 85
-135 92 0 5 13 -1 30 -13 17 -12 35 -18 42 -14z m-656 -67 c-27 -16 -50 -29
-52 -27 -11 12 52 57 80 57 13 1 3 -10 -28 -30z m-66 -34 c0 -3 -25 -21 -55
-42 -45 -30 -58 -34 -68 -23 -10 10 -9 12 5 7 10 -3 19 0 22 9 3 9 10 12 16 9
6 -3 13 1 16 9 3 9 14 16 24 16 11 0 22 5 25 10 7 11 15 13 15 5z m980 -81 c0
-2 -9 0 -20 6 -11 6 -20 13 -20 16 0 2 9 0 20 -6 11 -6 20 -13 20 -16z m80
-47 c0 -5 -13 0 -29 9 -17 10 -28 21 -25 26 6 9 53 -22 54 -35z m-1231 14
c-13 -10 -34 -24 -47 -30 -23 -12 -23 -12 -7 13 10 14 22 23 31 19 8 -3 14 0
14 6 0 6 7 11 16 11 13 0 11 -4 -7 -19z m-99 -65 c0 -2 -7 -6 -15 -10 -8 -3
-15 -1 -15 4 0 6 7 10 15 10 8 0 15 -2 15 -4z m1485 -48 c5 -4 6 -8 2 -8 -9 0
-87 51 -87 57 0 5 69 -35 85 -49z m-1540 16 c-36 -28 -61 -36 -30 -10 17 14
35 26 40 26 6 -1 1 -8 -10 -16z m1626 -65 c9 -18 9 -18 -26 -2 -41 20 -46 32
-10 25 14 -2 30 -13 36 -23z m-1701 16 c0 -2 -13 -11 -30 -20 -31 -16 -43 -3
-12 14 18 11 42 14 42 6z m1841 -99 c8 4 9 3 5 -4 -4 -7 -2 -12 3 -12 6 0 11
-5 11 -10 0 -6 -20 3 -45 20 -25 17 -45 33 -45 36 0 3 13 -4 30 -16 16 -12 35
-18 41 -14z m93 -65 c4 -5 -3 -7 -14 -4 -23 6 -26 13 -6 13 8 0 17 -4 20 -9z
m166 -117 c0 -3 -13 4 -30 16 -16 12 -30 24 -30 26 0 3 14 -4 30 -16 17 -12
30 -24 30 -26z m154 -79 c3 -8 1 -15 -4 -15 -6 0 -10 7 -10 15 0 8 2 15 4 15
2 0 6 -7 10 -15z m61 -35 c-3 -5 -12 -10 -18 -10 -7 0 -6 4 3 10 19 12 23 12
15 0z m-2966 -4 c-2 -2 -15 -9 -29 -15 -24 -11 -24 -11 -6 3 16 13 49 24 35
12z m3241 -166 c13 -8 13 -10 -2 -10 -9 0 -20 5 -23 10 -8 13 5 13 25 0z m70
-40 c0 -5 -7 -7 -15 -4 -8 4 -15 8 -15 10 0 2 7 4 15 4 8 0 15 -4 15 -10z m55
-40 c3 -6 -1 -7 -9 -4 -18 7 -21 14 -7 14 6 0 13 -4 16 -10z"/>
<path d="M5110 8483 c-8 -3 -194 -116 -413 -250 -706 -432 -1153 -698 -1912
-1136 -80 -46 -138 -86 -151 -105 -20 -29 -21 -44 -27 -633 -4 -331 -7 -958
-7 -1393 l0 -791 24 -50 c13 -27 39 -64 57 -82 19 -17 201 -144 404 -282 204
-137 528 -356 720 -486 193 -130 433 -293 535 -362 669 -455 728 -493 768
-493 46 0 111 38 387 226 105 72 393 266 640 433 815 547 1379 930 1418 962
20 17 50 54 65 82 l27 52 3 1385 c2 1306 1 1387 -15 1420 -20 40 -18 38 -438
275 -666 376 -969 558 -1530 919 -485 312 -511 327 -555 309z m57 -515 c15 -7
127 -72 248 -144 121 -72 382 -227 580 -344 198 -117 414 -245 480 -285 66
-40 210 -125 320 -190 344 -202 362 -214 395 -252 18 -20 42 -57 54 -82 21
-46 21 -52 24 -1100 1 -684 -1 -1074 -8 -1110 -15 -85 -66 -178 -128 -239 -30
-28 -296 -214 -591 -413 -295 -198 -714 -482 -931 -630 -443 -303 -478 -324
-525 -315 -36 7 -130 70 -860 573 -188 130 -793 542 -935 637 -168 113 -240
183 -283 273 l-32 68 -3 367 c-3 408 -3 411 62 442 47 22 61 20 98 -13 l33
-29 5 -349 c5 -327 6 -351 26 -393 30 -63 94 -119 289 -250 94 -62 271 -184
395 -270 124 -86 297 -206 385 -266 88 -61 297 -205 465 -321 168 -115 315
-215 327 -221 62 -34 38 -48 990 587 506 337 913 615 931 635 18 20 44 60 60
89 l27 52 3 1055 c3 1228 18 1087 -130 1173 -51 29 -262 152 -468 272 -586
341 -591 344 -845 490 -481 278 -444 259 -505 259 -54 1 -63 -4 -475 -243
-231 -135 -505 -294 -610 -354 -322 -185 -738 -428 -788 -460 -26 -16 -54 -42
-62 -57 -11 -22 -15 -115 -20 -451 -5 -322 -10 -429 -19 -444 -8 -11 -36 -33
-64 -48 -55 -30 -81 -27 -102 13 -6 12 -10 183 -10 474 0 435 1 458 21 510 14
39 34 68 67 97 26 23 187 123 357 224 325 191 449 264 1175 697 245 146 459
272 475 281 37 20 65 21 102 5z m-196 -785 l22 -28 -6 -1768 c-4 -1367 -8
-1771 -17 -1782 -7 -8 -23 -15 -36 -15 -16 0 -266 161 -670 432 -698 467 -686
458 -719 570 -13 47 -15 103 -13 358 l3 302 24 19 c19 16 40 19 126 19 56 0
117 -3 135 -6 54 -11 60 -41 60 -299 l0 -225 33 -34 c17 -19 102 -79 187 -133
85 -55 212 -136 281 -181 69 -45 135 -82 146 -82 11 0 27 8 36 18 15 17 17
110 17 1063 0 575 -2 1053 -6 1062 -11 29 -42 30 -92 1 -26 -15 -132 -82 -237
-149 -104 -67 -211 -134 -237 -149 l-48 -28 0 271 c0 270 0 271 23 284 117 73
713 421 785 459 113 59 167 65 203 21z m533 2 c82 -34 1071 -647 1118 -692 20
-20 47 -59 60 -87 l23 -51 0 -906 c0 -720 -3 -911 -13 -930 -14 -26 -291 -228
-324 -237 -11 -3 -24 1 -29 9 -5 8 -9 194 -9 415 0 395 0 401 -21 420 -20 18
-40 19 -295 19 -271 0 -274 0 -296 -23 l-23 -23 -5 -598 c-4 -477 -8 -601 -18
-614 -15 -18 -377 -287 -386 -287 -3 0 -6 797 -6 1770 0 1875 -1 1814 42 1834
22 10 143 -3 182 -19z"/>
<path d="M5717 6522 c-15 -17 -17 -63 -17 -461 0 -286 4 -449 10 -462 10 -18
24 -19 299 -19 266 0 289 1 304 18 15 16 17 50 17 273 0 280 -5 304 -66 360
-25 23 -402 266 -461 297 -32 17 -68 15 -86 -6z"/>
</g>
</svg>
